<?xml version="1.0" ?><svg xmlns="http://www.w3.org/2000/svg" xmlns:xlink="http://www.w3.org/1999/xlink" version="1.1" id="Layer_1" viewBox="0 0 100 100" style="enable-background:new 0 0 100 100;" xml:space="preserve"><style type="text/css">
	.st0{fill:#EEEEEE;}
	.st1{fill:#FFFFFF;}
	.st2{fill:#F2EDED;}
	.st3{fill:#0A0080;}
	.st4{fill:#005EB8;}
	.st5{fill:#FBB040;}
	.st6{fill:#ED8B00;}
	.st7{clip-path:url(#SVGID_2_);fill:#FFFFFF;}
</style><g><title/><g id="Rectangle-290"><g id="path-1"><path class="st0" d="M48.8,2.3h2.3c25.7,0,46.5,20.8,46.5,46.5l0,0v2.3c0,25.7-20.8,46.5-46.5,46.5h0h-2.3     c-25.7,0-46.5-20.9-46.5-46.6v-2.3C2.3,23.1,23.2,2.3,48.8,2.3z"/><path class="st1" d="M51.2,100h-2.3C21.9,100,0,78,0,51.1v-2.3C0,21.9,21.9,0,48.8,0c0,0,0,0,0,0h2.3C78.1,0,100,21.9,100,48.8     v2.3C100,78.1,78.1,100,51.2,100z M48.8,4.7C24.5,4.7,4.7,24.4,4.7,48.8v2.3c0,24.4,19.8,44.2,44.2,44.2h2.3     c24.4,0,44.2-19.8,44.2-44.2v-2.3c0-24.4-19.8-44.2-44.2-44.2H48.8C48.8,4.7,48.8,4.7,48.8,4.7z"/></g><g id="path-1-2"><path class="st2" d="M51.2,98.3h-2.3c-26,0-47.1-21.2-47.1-47.1v-2.3c0-25.9,21.1-47,47.1-47c0,0,0,0,0,0h2.3     c26,0,47.1,21.1,47.1,47.1v2.3C98.3,77.1,77.1,98.3,51.2,98.3z M48.8,2.9C23.5,2.9,2.9,23.5,2.9,48.8v2.3     c0,25.3,20.6,45.9,45.9,46h2.3c25.3,0,45.9-20.6,45.9-45.9v-2.3c0-25.3-20.6-45.9-45.9-45.9H48.8C48.8,2.9,48.8,2.9,48.8,2.9z"/></g></g><g id="_Path_"><path class="st3" d="M63.3,41.6c-1-1.3-2.9-2-5-2H41.4c-2.1,0-4,0.8-5,2L30.6,49h38.6L63.3,41.6z"/></g><g id="_Path_2"><path class="st3" d="M23.7,41.1h3.1v13.3h-3.1V41.1z"/></g><g id="_Path_3"><path class="st4" d="M67.8,45.9H32.2c-4.7,0-8.5,3.8-8.5,8.5v12.1c0,3.5,2.9,6.4,6.4,6.4h10.3c2.7,0,5.3-1,7.2-3l0.3-0.3    c1.2-1.2,3-1.2,4.2,0c0,0,0,0,0,0l0.3,0.3c1.9,1.9,4.5,3,7.2,3h10.3c3.5,0,6.4-2.9,6.4-6.4V54.4C76.3,49.7,72.5,45.9,67.8,45.9    C67.8,45.9,67.8,45.9,67.8,45.9z"/></g><g id="_Path_4"><path class="st5" d="M61.5,55.6c0.9,0,1.5-0.7,1.5-1.5s-0.7-1.5-1.5-1.5S60,53.2,60,54C60,54.9,60.7,55.6,61.5,55.6z"/></g><g id="_Path_5"><path class="st6" d="M67.3,55.6c0.9,0,1.5-0.7,1.5-1.5s-0.7-1.5-1.5-1.5c-0.9,0-1.5,0.7-1.5,1.5C65.7,54.9,66.4,55.6,67.3,55.6z"/></g><g><g><defs><polygon id="SVGID_1_" points="50.5,16.5 67.4,16.5 58.9,31 50.5,45.6 42.1,31 33.7,16.5     "/></defs><clipPath id="SVGID_2_"><use xlink:href="#SVGID_1_" style="overflow:visible;"/></clipPath><rect x="33.7" y="40.7" class="st7" width="33.7" height="5"/><rect x="33.7" y="35.1" class="st7" width="33.7" height="5.5"/><rect x="33.7" y="31.9" class="st7" width="33.7" height="3.2"/><rect x="33.7" y="29.3" class="st7" width="33.7" height="2.6"/><rect x="33.7" y="26.7" class="st7" width="33.7" height="2.6"/><rect x="33.7" y="24.6" class="st7" width="33.7" height="2"/><rect x="33.7" y="22.6" class="st7" width="33.7" height="2"/><rect x="33.7" y="20.5" class="st7" width="33.7" height="2"/><rect x="33.7" y="18.8" class="st7" width="33.7" height="1.7"/><rect x="33.7" y="17.1" class="st7" width="33.7" height="1.7"/><rect x="33.7" y="16.5" class="st7" width="33.7" height="0.6"/><path class="st7" d="M67.4,16.5H33.7H67.4z"/></g></g></g></svg>