<?xml version="1.0" ?><svg xmlns:sketch="http://www.bohemiancoding.com/sketch/ns" xmlns="http://www.w3.org/2000/svg" xmlns:xlink="http://www.w3.org/1999/xlink" version="1.1" id="Layer_1" viewBox="0 0 100 100" style="enable-background:new 0 0 100 100;" xml:space="preserve"><style type="text/css">
	.st0{fill:#EEEEEE;}
	.st1{fill:#FFFFFF;}
	.st2{fill:#F2EDED;}
	.st3{fill:#ED8B00;}
	.st4{fill:#005EB8;}
	.st5{fill:#123155;}
	.st6{fill:#F9F6F9;}
	.st7{fill:#FBB040;}
</style><g><g id="Rectangle-290"><g><g id="path-1"><path class="st0" d="M48.9,3.5h2.3c25,0,45.3,20.3,45.3,45.3v2.3c0,25-20.3,45.3-45.3,45.3h-2.3c-25,0-45.3-20.3-45.3-45.3v-2.3      C3.5,23.8,23.8,3.5,48.9,3.5z"/><path class="st1" d="M51.1,98.7h-2.3c-26.2,0-47.6-21.3-47.6-47.6v-2.3c0-26.2,21.4-47.6,47.6-47.6h2.3      c26.2,0,47.6,21.4,47.6,47.6v2.3C98.7,77.4,77.4,98.7,51.1,98.7z M48.9,5.8C25.1,5.8,5.8,25.1,5.8,48.9v2.3      c0,23.7,19.3,43.1,43.1,43.1h2.3c23.7,0,43.1-19.3,43.1-43.1v-2.3c0-23.7-19.3-43.1-43.1-43.1H48.9z"/></g></g><g><g id="path-1_1_"><path class="st2" d="M51.1,97h-2.3C23.6,97,3,76.4,3,51.1v-2.3C3,23.6,23.6,3,48.9,3h2.3C76.4,3,97,23.6,97,48.9v2.3      C97,76.4,76.4,97,51.1,97z M48.9,4.1C24.2,4.1,4.1,24.2,4.1,48.9v2.3c0,24.7,20.1,44.8,44.8,44.8h2.3      c24.7,0,44.8-20.1,44.8-44.8v-2.3c0-24.7-20.1-44.8-44.8-44.8H48.9z"/></g></g></g><g><g><g><rect x="39.3" y="31.8" class="st1" width="27.5" height="30"/></g><g id="XMLID_9_"><g><g><rect x="39.5" y="28.8" class="st3" width="27.1" height="5.1"/></g></g></g></g><g><g><path class="st4" d="M63.4,64.7v-4.4H40.3V30.4c0-0.8,0.7-1.5,1.5-1.5h21.6c0.8,0,1.5,0.7,1.5,1.5v9.5h3.7v-9.5      c0-2.8-2.4-5.2-5.2-5.2H41.7c-2.8,0-5.2,2.4-5.2,5.2v31.7c0,2.8,2.4,5.2,5.2,5.2h22.4C63.7,66.7,63.4,65.9,63.4,64.7L63.4,64.7z       M52.6,66c-0.7,0-1.1-0.3-1.6-0.8c-0.3-0.3-0.6-0.8-0.6-1.4c0-1.1,0.9-2,2-2s2,0.9,2,2c0,0.6-0.2,1-0.6,1.4      C53.7,65.6,53.2,66,52.6,66L52.6,66z"/></g></g><g><g><rect x="62.2" y="44.2" class="st1" width="15.5" height="18.8"/></g><g id="XMLID_10_"><g><g><rect x="62.4" y="41.4" class="st3" width="15.3" height="5.1"/></g></g></g></g><g><path class="st5" d="M76.1,38.9H63.8c-1.5,0-2.7,1.2-2.7,2.6v23.1c0,1.5,1.2,2.7,2.7,2.7h12.2c1.5,0,2.7-1.2,2.7-2.7V41.5     C78.8,40,77.5,38.9,76.1,38.9L76.1,38.9z M63.9,41.6h12v20.5h-12V41.6z M68.6,64.6c0-0.7,0.6-1.4,1.4-1.4s1.4,0.6,1.4,1.4     S70.7,66,69.9,66C69.3,66,68.6,65.3,68.6,64.6L68.6,64.6z"/></g><g><g><circle class="st3" cx="34.5" cy="61.6" r="13.3"/></g><g><path class="st6" d="M40.3,53.5l-2.8,2.8l-1.9,1.9l-0.3,0.3l-1.5,1.5l-1,1l-1.2,1.2l-1,1l-0.5,0.5l-3.6,3.6      c-1.1-1.6-1.8-3.6-1.8-5.8c0-5.6,4.4-10,10-10C36.6,51.6,38.7,52.3,40.3,53.5z"/></g><g><path class="st6" d="M44.4,61.6c0,5.6-4.4,10-10,10c-2.2,0-4.2-0.7-5.8-1.8l3.6-3.6l1.5-1.5l0.6-0.6l0.6-0.6l0.1-0.1l2.3-2.3      l0.1-0.1l0.2-0.2l1.4-1.4l1.6-1.6l1.8-1.8C43.8,57.5,44.4,59.4,44.4,61.6z"/></g><g><g><path class="st7" d="M40.7,57.7l-1.6,1.6c0.9,0.5,1.7,1,2.5,1.8l1.6-1.6C42.4,58.8,41.6,58.2,40.7,57.7z M34.5,56       c-3.3,0-6.3,1.2-8.6,3.6l1.6,1.6l0,0c1.9-1.9,4.4-2.9,7-2.9c0.3,0,0.7,0,1,0l1.9-1.9C36.5,56.1,35.5,56,34.5,56L34.5,56z"/></g><g><path class="st7" d="M28.7,62.4l1.4,1.4l0.5-0.5l1-1l1.2-1.2l1-1C31.9,60.2,30.1,61,28.7,62.4L28.7,62.4z M37.8,60.7l-0.2,0.2       L37.4,61l-1.5,1.5c1,0.2,1.9,0.8,2.7,1.6l1.6-1.6C39.5,61.7,38.7,61.1,37.8,60.7z"/></g><g><path class="st7" d="M37.4,65.3l-2.9,2.8L32.3,66l1.5-1.5l0.6-0.6h0.1C35.6,64.1,36.6,64.5,37.4,65.3L37.4,65.3z"/></g></g></g></g></g></svg>