<?xml version="1.0" ?><svg xmlns="http://www.w3.org/2000/svg" xmlns:xlink="http://www.w3.org/1999/xlink" version="1.1" id="Layer_1" viewBox="0 0 100 100" style="enable-background:new 0 0 100 100;" xml:space="preserve"><style type="text/css">
	.st0{fill:#EEEEEE;}
	.st1{fill:#FFFFFF;}
	.st2{fill:#F2EDED;}
	.st3{fill:#B8E7FF;}
	.st4{fill:#A1D0FE;}
	.st5{fill:#ED8B00;}
	.st6{fill:#0A84F2;}
	.st7{fill:#005EB8;}
	.st8{fill:#FBB040;}
	.st9{fill:#7EC4F7;}
</style><g><g id="Rectangle-290"><g id="path-1"><path class="st0" d="M48.9,3.8h2.3c24.9,0,45.1,20.2,45.1,45.1l0,0l0,0v2.3c0,24.9-20.2,45.1-45.1,45.1h0h-2.3     C24,96.3,3.8,76.1,3.8,51.1v-2.3C3.8,24,24,3.8,48.9,3.8C48.9,3.8,48.9,3.8,48.9,3.8z"/><path class="st1" d="M51.2,98.6h-2.3c-26.1,0-47.4-21.3-47.4-47.4v-2.3c0-12.6,4.9-24.5,13.9-33.5C24.3,6.5,36.2,1.5,48.9,1.5     c0,0,0,0,0,0l0,2.3V1.5h2.3c26.1,0,47.4,21.3,47.4,47.4v2.3C98.6,77.3,77.3,98.6,51.2,98.6z M48.9,6c-11.4,0-22.2,4.5-30.3,12.5     C10.5,26.7,6,37.4,6,48.9v2.3c0,23.6,19.2,42.9,42.9,42.9h2.3c23.6,0,42.9-19.2,42.9-42.9v-2.3C94.1,25.3,74.8,6,51.2,6H48.9     C48.9,6,48.9,6,48.9,6z"/></g><g id="path-1-2"><path class="st2" d="M51.2,96.9h-2.3c-25.2,0-45.7-20.6-45.7-45.7v-2.3c0-12.2,4.8-23.7,13.4-32.3C25.2,8,36.7,3.2,48.9,3.2     c0,0,0,0,0,0l0,0.6V3.2h2.3c25.2,0,45.7,20.5,45.7,45.7v2.3C96.9,76.4,76.4,96.9,51.2,96.9z M48.9,4.4C37,4.4,25.8,9,17.4,17.4     C9,25.8,4.4,37,4.4,48.9v2.3c0,24.6,20,44.6,44.6,44.6h2.3c24.6,0,44.6-20,44.6-44.6v-2.3c0-24.6-20-44.6-44.6-44.6H48.9     C48.9,4.4,48.9,4.4,48.9,4.4z"/></g></g><g><path class="st3" d="M76.2,72c2.3,0,4.2-1.8,4.2-4.1c0,0,0,0,0,0V33.3H19.7v34.5c0,2.3,1.8,4.2,4.1,4.2c0,0,0,0,0,0H76.2z"/></g><g><path class="st4" d="M80.4,67.8c0-2.3-1.9-4.2-4.2-4.2c0,0,0,0,0,0h-3.1V28.1h3.1c2.3,0,4.2,1.8,4.2,4.1c0,0,0,0,0,0V67.8z"/></g><g><path class="st4" d="M19.7,67.8c0-2.3,1.9-4.2,4.2-4.2c0,0,0,0,0,0H27V28.1h-3.1c-2.3,0-4.2,1.8-4.2,4.1c0,0,0,0,0,0V67.8z"/></g><g><path class="st5" d="M45.4,65c-1.6,3.3-0.9,7.3,1.9,9.7l2.8,2.4l2.8-2.4c2.8-2.4,3.6-6.4,1.9-9.7H45.4z"/></g><g><path class="st6" d="M57.5,39.4v21.8H42.6V39.4c0-5.8,2.1-11.4,5.9-15.7c0.2-0.2,0.4-0.4,0.7-0.5c0.5-0.2,1.2-0.2,1.7,0    c0.3,0.1,0.5,0.3,0.7,0.5C55.4,28,57.5,33.6,57.5,39.4z"/></g><g><path class="st7" d="M57.2,36H42.8c0.7-4.6,2.6-8.9,5.7-12.4c0.2-0.2,0.4-0.4,0.7-0.5c0.5-0.2,1.2-0.2,1.7,0    c0.3,0.1,0.5,0.3,0.7,0.5C54.6,27.2,56.6,31.4,57.2,36z"/></g><g><path class="st8" d="M57.5,61.2L54.7,65h-9.4l-2.8-3.7L57.5,61.2z"/></g><g><path class="st7" d="M48.2,54.7h3.7v14.9h-3.7V54.7z"/></g><g><path class="st7" d="M42.6,58.4L36,65v-8.8c0-4.3,2.6-8.2,6.5-9.9l0,0V58.4z"/></g><g><path class="st7" d="M57.5,58.4L64,65v-8.8c0-4.3-2.6-8.2-6.5-9.9l0,0L57.5,58.4z"/></g><g><path class="st1" d="M50,47.9c-2.4,0-4.4-2-4.4-4.4c0-2.4,2-4.4,4.4-4.4c2.4,0,4.4,2,4.4,4.4c0,0,0,0,0,0    C54.4,45.9,52.5,47.9,50,47.9z"/></g><g><path class="st9" d="M50,39.8c2.1,0,3.7,1.7,3.7,3.7c0,2.1-1.7,3.7-3.7,3.7c-2.1,0-3.7-1.7-3.7-3.7c0,0,0,0,0,0    C46.3,41.4,48,39.8,50,39.8C50,39.8,50,39.8,50,39.8 M50,38.4c-2.8,0-5.1,2.3-5.1,5.1c0,2.8,2.3,5.1,5.1,5.1    c2.8,0,5.1-2.3,5.1-5.1c0,0,0,0,0,0C55.1,40.7,52.9,38.4,50,38.4z"/></g></g></svg>