<?xml version="1.0" ?><svg xmlns="http://www.w3.org/2000/svg" xmlns:xlink="http://www.w3.org/1999/xlink" version="1.1" id="Layer_1" viewBox="0 0 100 100" style="enable-background:new 0 0 100 100;" xml:space="preserve"><style type="text/css">
	.st0{fill:#EEEEEE;}
	.st1{fill:#FFFFFF;}
	.st2{fill:#F2EDED;}
	.st3{fill:#7EC4F7;}
	.st4{fill:#A1D0FE;}
	.st5{fill:#ED8B00;}
	.st6{fill:#FAFAFA;}
	.st7{fill:#FBB040;}
	.st8{fill:#103159;}
</style><g><g id="Rectangle-290"><g id="path-1"><path class="st0" d="M48.8,2.3h2.3c25.7,0,46.5,20.8,46.5,46.5c0,0,0,0,0,0v2.3c0,25.7-20.8,46.5-46.5,46.5c0,0,0,0,0,0h-2.3     c-25.7,0-46.5-20.8-46.5-46.5c0,0,0,0,0,0v-2.3C2.3,23.1,23.1,2.3,48.8,2.3C48.8,2.3,48.8,2.3,48.8,2.3z"/><path class="st1" d="M51.2,100h-2.4C21.9,100,0,78,0,51.2v-2.4C0,21.9,21.9,0,48.8,0l0,0l0,0h2.4C78,0,100,21.9,100,48.8v2.4     C100,78,78.1,100,51.2,100z M48.8,4.7C24.5,4.7,4.7,24.4,4.7,48.8v2.3c0,24.4,19.8,44.2,44.2,44.2h2.3     c24.4,0,44.2-19.9,44.2-44.2v-2.4c0-24.3-19.9-44.1-44.2-44.1H48.8z"/></g><g id="path-1-2"><path class="st2" d="M51.2,98.3h-2.4c-26,0-47.1-21.2-47.1-47.1v-2.4c0-25.9,21.1-47,47.1-47l0,0l0,0h2.4c25.9,0,47,21.1,47.1,47     v2.4C98.3,77.1,77.2,98.2,51.2,98.3L51.2,98.3z M48.8,2.9C23.5,2.9,2.9,23.5,2.9,48.8v2.3c0,25.3,20.6,45.9,45.9,46h2.3     c25.3,0,45.9-20.6,45.9-45.9v-2.4C97,23.5,76.4,2.9,51.2,2.9H48.8z"/></g></g><g><path class="st3" d="M38.2,32.6h17.2v22.2H38.2V32.6z"/></g><g><path class="st1" d="M43.1,41.2h2.5v2.5h-2.5V41.2z"/></g><g><path class="st1" d="M48,41.2h2.5v2.5H48V41.2z"/></g><g><path class="st1" d="M43.1,36.3h2.5v2.5h-2.5V36.3z"/></g><g><path class="st1" d="M48,36.3h2.5v2.5H48V36.3z"/></g><g><path class="st4" d="M55.5,25.5h22.2v39.4H55.5V25.5z"/></g><g><path class="st1" d="M60.4,31.7h2.5v2.5h-2.5V31.7z"/></g><g><path class="st1" d="M65.3,31.7h2.5v2.5h-2.5V31.7z"/></g><g><path class="st1" d="M70.2,31.7h2.5v2.5h-2.5V31.7z"/></g><g><path class="st1" d="M60.4,36.6h2.5v2.5h-2.5V36.6z"/></g><g><path class="st1" d="M65.3,36.6h2.5v2.5h-2.5V36.6z"/></g><g><path class="st1" d="M70.2,36.6h2.5v2.5h-2.5V36.6z"/></g><g><path class="st5" d="M20.4,62v7c0,0.8,0.6,1.4,1.4,1.4h14.1c0.8,0,1.4-0.6,1.4-1.4V54.9c0-0.8-0.6-1.4-1.4-1.4h-9.9    c-0.5,0-1,0.2-1.2,0.7l-4.2,7C20.5,61.5,20.4,61.7,20.4,62z"/></g><g><polygon class="st6" points="31.7,62 23.5,62 26.9,56.4 31.7,56.4   "/></g><g><path class="st7" d="M34.5,49.4v21.1h26.7c0.8,0,1.4-0.6,1.4-1.4V49.4c0-0.8-0.6-1.4-1.4-1.4H35.9C35.1,47.9,34.5,48.5,34.5,49.4z    "/></g><g><circle class="st6" cx="27.4" cy="69" r="2.8"/></g><g><path class="st8" d="M23.2,69c0-2.3,1.9-4.2,4.2-4.2c2.3,0,4.2,1.9,4.2,4.2c0,2.3-1.9,4.2-4.2,4.2l0,0    C25.2,73.2,23.2,71.3,23.2,69z M26.1,69c0,0.8,0.6,1.4,1.4,1.4s1.4-0.6,1.4-1.4c0-0.8-0.6-1.4-1.4-1.4l0,0    C26.7,67.6,26.1,68.2,26.1,69z"/></g><g><path class="st5" d="M34.5,64.8h28.1V69c0,0.8-0.6,1.4-1.4,1.4H34.5V64.8z"/></g><g><circle class="st6" cx="52.7" cy="69" r="2.8"/></g><g><path class="st8" d="M48.5,69c0-2.3,1.9-4.2,4.2-4.2c2.3,0,4.2,1.9,4.2,4.2c0,2.3-1.9,4.2-4.2,4.2l0,0    C50.4,73.2,48.5,71.3,48.5,69z M51.3,69c0,0.8,0.6,1.4,1.4,1.4c0.8,0,1.4-0.6,1.4-1.4c0-0.8-0.6-1.4-1.4-1.4l0,0    C51.9,67.6,51.3,68.2,51.3,69z"/></g><g><path class="st8" d="M71.2,54.2v-3.8L69.6,50c-0.2-0.6-0.4-1.1-0.7-1.7l0.9-1.4l-2.7-2.7L65.7,45c-0.5-0.3-1.1-0.5-1.7-0.7    l-0.4-1.6h-3.8l-0.4,1.6c-0.6,0.2-1.1,0.4-1.7,0.7l-1.4-0.9l-2.7,2.7l0.9,1.4c-0.3,0.5-0.5,1.1-0.7,1.7l-1.6,0.4v3.8l1.6,0.4    c0.2,0.6,0.4,1.1,0.7,1.7l-0.9,1.4l2.7,2.7l1.4-0.9c0.5,0.3,1.1,0.5,1.7,0.7l0.4,1.6h3.8l0.4-1.6c0.6-0.2,1.1-0.4,1.7-0.7l1.4,0.9    l2.7-2.7l-0.9-1.4c0.3-0.5,0.5-1.1,0.7-1.7L71.2,54.2z"/></g><g id="XMLID_1_"><g><g><path class="st1" d="M61.7,48.4c2.1,0,3.9,1.7,3.9,3.9c0,2.1-1.7,3.9-3.9,3.9c-2.1,0-3.9-1.7-3.9-3.9      C57.8,50.2,59.6,48.4,61.7,48.4z"/></g></g></g></g></svg>