<?xml version="1.0" ?><svg xmlns="http://www.w3.org/2000/svg" xmlns:xlink="http://www.w3.org/1999/xlink" version="1.1" id="Layer_1" viewBox="0 0 100 100" style="enable-background:new 0 0 100 100;" xml:space="preserve"><style type="text/css">
	.st0{fill:#EEEEEE;}
	.st1{fill:#FFFFFF;}
	.st2{fill:#F2EDED;}
	.st3{fill:#1AA1FC;}
	.st4{fill:#0F8ADA;}
	.st5{fill:#C7ECFF;}
	.st6{fill:#005EB8;}
	.st7{fill:#FFB038;}
	.st8{fill:#F48900;}
</style><title/><g><g id="Rectangle-290"><g id="path-1"><path class="st0" d="M48.8,2.3h2.3c25.7,0,46.5,20.8,46.5,46.5c0,0,0,0,0,0v2.3c0,25.7-20.8,46.5-46.5,46.5c0,0,0,0,0,0h-2.3     c-25.7,0-46.5-20.8-46.5-46.5c0,0,0,0,0,0v-2.3C2.3,23.2,23.1,2.3,48.8,2.3C48.8,2.3,48.8,2.3,48.8,2.3z"/><path class="st1" d="M48.8,100c-13,0-25.3-5.1-34.5-14.3C5.1,76.5,0,64.2,0,51.2v-2.4c0-13,5.1-25.3,14.3-34.5     C23.5,5.1,35.8,0,48.8,0h2.4c0,0,0,0,0,0c13,0,25.3,5.1,34.5,14.3c9.2,9.2,14.3,21.5,14.3,34.5v2.4c0,13-5.1,25.3-14.3,34.5     C76.5,94.9,64.2,100,51.2,100H48.8C48.8,100,48.8,100,48.8,100z M48.8,4.7C37,4.7,25.9,9.3,17.6,17.6C9.2,25.9,4.6,37,4.7,48.8     v2.3c0,11.8,4.6,22.9,12.9,31.3c8.3,8.3,19.4,12.9,31.2,12.9c0,0,0,0,0,0h2.3c24.4,0,44.2-19.8,44.2-44.2v-2.3     c0-24.4-19.8-44.2-44.2-44.2c0,0,0,0,0,0H48.8z"/></g><g id="path-1-2"><path class="st2" d="M48.8,98.3c-12.6,0-24.4-4.9-33.3-13.8C6.6,75.6,1.7,63.8,1.7,51.2v-2.4c0-12.6,4.9-24.4,13.8-33.3     C24.4,6.6,36.2,1.7,48.8,1.7h2.4c0,0,0,0,0,0c26,0,47.1,21.1,47.1,47.1v2.4c0,26-21.1,47.1-47.1,47.1H48.8     C48.8,98.3,48.8,98.3,48.8,98.3z M48.8,2.9C23.5,2.9,2.9,23.5,2.9,48.8v2.3c0,25.3,20.6,45.9,45.9,45.9c0,0,0,0,0,0h2.3     c25.3,0,45.9-20.6,45.9-45.9v-2.3c0-25.3-20.6-45.9-45.9-45.9c0,0,0,0,0,0H48.8z"/></g></g><g><rect x="21.6" y="28.7" class="st3" width="56.7" height="33.4"/></g><g><path class="st4" d="M54.8,66.8V62h-9.5v4.8c0,1.6-1.3,2.9-2.9,2.9h-3.2V73h21.8v-3.3h-3.2C56.1,69.7,54.8,68.4,54.8,66.8z"/></g><g><rect x="25.5" y="32.5" class="st5" width="49" height="25.6"/></g><g><rect x="29.3" y="51.2" transform="matrix(0.7071 0.7071 -0.7071 0.7071 53.9131 -6.5794)" class="st6" width="11.3" height="21.2"/></g><g><g><rect x="37" y="54" transform="matrix(0.7071 0.7071 -0.7071 0.7071 50.2396 -10.815)" class="st7" width="2.4" height="2.4"/></g><g><rect x="40.2" y="57.3" transform="matrix(0.7071 0.7071 -0.7071 0.7071 53.5157 -12.172)" class="st3" width="2.4" height="2.4"/></g><g><rect x="33.7" y="57.3" transform="matrix(0.7071 0.7071 -0.7071 0.7071 51.5966 -7.5389)" class="st3" width="2.4" height="2.4"/></g><g><rect x="37" y="60.6" transform="matrix(0.7071 0.7071 -0.7071 0.7071 54.8726 -8.8959)" class="st3" width="2.4" height="2.4"/></g><g><rect x="30.4" y="60.6" transform="matrix(0.7071 0.7071 -0.7071 0.7071 52.9536 -4.2629)" class="st3" width="2.4" height="2.4"/></g><g><rect x="33.7" y="63.8" transform="matrix(0.7071 0.7071 -0.7071 0.7071 56.2296 -5.6199)" class="st3" width="2.4" height="2.4"/></g><g><rect x="27.1" y="63.8" transform="matrix(0.7071 0.7071 -0.7071 0.7071 54.3106 -0.9868)" class="st3" width="2.4" height="2.4"/></g><g><rect x="30.4" y="67.1" transform="matrix(0.7071 0.7071 -0.7071 0.7071 57.5866 -2.3438)" class="st3" width="2.4" height="2.4"/></g></g><g><path class="st8" d="M49.8,53.5H47c0-2.8-2.3-5.2-5.2-5.2v-2.9C46.2,45.5,49.8,49.1,49.8,53.5z"/></g><g><path class="st8" d="M54.8,53.5H52c0-5.6-4.6-10.2-10.2-10.2v-2.9C49,40.5,54.8,46.3,54.8,53.5z"/></g><g><path class="st8" d="M59.6,53.5h-2.9c0-8.2-6.7-14.9-14.9-14.9v-2.9C51.6,35.7,59.6,43.7,59.6,53.5z"/></g></g></svg>