<?xml version="1.0" ?><svg xmlns="http://www.w3.org/2000/svg" xmlns:xlink="http://www.w3.org/1999/xlink" version="1.1" id="Layer_1" viewBox="0 0 100 100" style="enable-background:new 0 0 100 100;" xml:space="preserve"><style type="text/css">
	.st0{fill:#EEEEEE;}
	.st1{fill:#FFFFFF;}
	.st2{fill:#F2EDED;}
	.st3{fill:#0A84F2;}
	.st4{fill:#005EB8;}
	.st5{fill:#FBB040;}
	.st6{fill:#ED8B00;}
	.st7{fill:#103159;}
</style><g><g id="Rectangle-290"><g id="path-1"><path class="st0" d="M48.9,2.4h2.3c25.7,0,46.5,20.8,46.5,46.5l0,0v2.3c0,25.7-20.8,46.5-46.5,46.5l0,0h-2.3     c-25.7,0-46.5-20.9-46.5-46.5v-2.3C2.4,23.2,23.2,2.4,48.9,2.4z"/><path class="st1" d="M51.2,100h-2.3C22,100,0.1,78,0.1,51.2v-2.3C0.1,22,22,0.1,48.9,0.1h2.3C78.1,0.1,100,22,100,48.9v2.3     C100,78.1,78.1,100,51.2,100z M48.9,4.7C24.5,4.7,4.7,24.5,4.7,48.8v2.3c0,24.3,19.8,44.1,44.1,44.2h2.3     c24.3,0,44.1-19.8,44.1-44.1v-2.3c0-24.3-19.8-44.1-44.1-44.1H48.9z"/></g><g id="path-1-2"><path class="st2" d="M51.2,98.3h-2.3c-25.9,0-47-21.2-47-47.1v-2.3c0-25.9,21.1-47,47-47h2.3c25.9,0,47,21.1,47,47v2.3     C98.3,77.2,77.2,98.3,51.2,98.3z M48.9,3C23.6,3,3,23.6,3,48.8v2.3C3,76.4,23.6,97,48.9,97.1h2.3c25.3,0,45.9-20.6,45.9-45.9     v-2.3C97.1,23.6,76.5,3,51.2,3H48.9z"/></g></g><g><g><rect x="46.7" y="35.9" transform="matrix(0.7071 0.7071 -0.7071 0.7071 49.948 -21.4519)" class="st3" width="8.3" height="27.3"/></g><g><path class="st4" d="M54.6,45.9c1,1,2.2,1.9,3.4,2.5l5.5-5.5L57.6,37l-5.5,5.5C52.7,43.7,53.5,44.9,54.6,45.9z"/></g><g><path class="st3" d="M75.6,32.4L69.1,39l-7.6-7.6l6.5-6.5c-4-1.2-8.4-0.3-11.6,2.9C52,32.2,52,39.5,56.5,44     c4.5,4.5,11.8,4.5,16.3,0C75.9,40.8,76.8,36.4,75.6,32.4z"/></g><g><path class="st4" d="M46,54.4c-1-1-2.2-1.9-3.4-2.5l-5.5,5.5l5.9,5.9l5.5-5.5C47.9,56.6,47,55.4,46,54.4z"/></g><g><path class="st3" d="M25,67.9l6.5-6.5l7.6,7.6l-6.5,6.5c4,1.2,8.4,0.3,11.6-2.9c4.5-4.5,4.5-11.8,0-16.3     c-4.5-4.5-11.8-4.5-16.3,0C24.7,59.4,23.8,63.9,25,67.9z"/></g></g><g><g><rect x="32.2" y="44" transform="matrix(0.7071 0.7071 -0.7071 0.7071 45.9494 -19.1179)" class="st5" width="27.7" height="3.8"/></g><g><polygon class="st5" points="30.7,34.7 25.9,28.4 28.5,25.7 34.9,30.6    "/></g><g><polygon class="st6" points="30.7,34.7 34.9,37.4 37.6,34.8 34.9,30.6    "/></g><g><rect x="55.7" y="60" transform="matrix(0.7071 0.7071 -0.7071 0.7071 64.749 -26.9049)" class="st4" width="18.3" height="9.5"/></g><g><rect x="55.3" y="50.5" transform="matrix(-0.7071 -0.7071 0.7071 -0.7071 57.2119 137.6261)" class="st7" width="3.5" height="13"/></g></g></g></svg>