<?xml version="1.0" ?><svg xmlns="http://www.w3.org/2000/svg" xmlns:xlink="http://www.w3.org/1999/xlink" version="1.1" id="Layer_1" viewBox="0 0 100 100" style="enable-background:new 0 0 100 100;" xml:space="preserve"><style type="text/css">
	.st0{fill:#EEEEEE;}
	.st1{fill:#FFFFFF;}
	.st2{fill:#F2EDED;}
	.st3{fill:#ED8B00;}
	.st4{fill:#FBB040;}
	.st5{fill:#005EB8;}
</style><g><g id="Rectangle-290"><g id="path-1"><path class="st0" d="M48.8,2.3h2.3c25.7,0,46.5,20.8,46.5,46.5v2.3c0,25.7-20.8,46.5-46.5,46.5h0h-2.3     C23.1,97.6,2.3,76.8,2.3,51.1v-2.3C2.3,23.1,23.2,2.3,48.8,2.3z"/><path class="st1" d="M51.2,100h-2.3C21.9,99.9,0,78,0,51.1v-2.3C0,21.9,21.9,0,48.8,0h2.3C78.1,0,100,21.9,100,48.8v2.3     C100,78.1,78.1,100,51.2,100z M48.8,4.7C24.5,4.7,4.7,24.5,4.7,48.8v2.3c0,24.3,19.8,44.2,44.2,44.2h2.3     c24.4,0,44.2-19.8,44.2-44.2v-2.3c0-24.4-19.8-44.2-44.2-44.2H48.8z"/></g><g id="path-1-2"><path class="st2" d="M51.2,98.3h-2.3C22.9,98.2,1.8,77.1,1.7,51.1v-2.3c0-25.9,21.1-47,47.1-47h2.3c26,0,47.1,21.1,47.1,47.1v2.3     C98.3,77.1,77.1,98.3,51.2,98.3z M48.8,2.9C23.5,2.9,2.9,23.5,2.9,48.8v2.3c0,25.3,20.6,45.9,45.9,46h2.3     c25.3,0,45.9-20.6,45.9-45.9v-2.3c0-25.3-20.6-45.9-45.9-45.9H48.8z"/></g></g><g><path class="st3" d="M76.2,52.8v-5.9l-6.7-1.5c-0.5-2.1-1.3-4.1-2.5-6l3.5-5.9l-4.1-4.2l-5.9,3.5c-1.8-1.1-3.9-2-6-2.5l-1.7-6.7    H47l-1.6,6.7c-2.1,0.5-4.1,1.3-6,2.5l-5.9-3.6l-4.2,4.2l3.5,5.9c-1.1,1.8-2,3.9-2.5,6L23.8,47v5.9l6.7,1.6c0.5,2.1,1.3,4.1,2.5,6    l-3.5,5.9l4.2,4.3l5.8-3.5c1.8,1.1,3.9,2,6,2.5l1.6,6.7h5.9l1.6-6.7c2.1-0.5,4.1-1.3,6-2.5l5.9,3.5l4.2-4.2l-3.5-5.9    c1.1-1.8,2-3.9,2.5-6L76.2,52.8z M49.9,56.3c-3.5,0-6.4-2.8-6.4-6.4c0-3.5,2.8-6.4,6.4-6.4c3.5,0,6.4,2.8,6.4,6.4c0,0,0,0,0,0l0,0    C56.3,53.4,53.5,56.3,49.9,56.3C50,56.3,50,56.3,49.9,56.3L49.9,56.3z"/></g><g><path class="st4" d="M49.9,36.3c-7.5,0-13.6,6.2-13.6,13.7s6.2,13.6,13.7,13.5c7.5,0,13.6-6.2,13.6-13.7    C63.6,42.4,57.5,36.3,49.9,36.3C49.9,36.3,49.9,36.3,49.9,36.3z"/></g><g><path class="st1" d="M57.7,46.3l-4.3,4.3L50,49.9l-0.8-3.3l4.3-4.3c-3.4-1.1-7,0.8-8.1,4.1c-0.5,1.4-0.4,3,0.2,4.4l-3.7,3.7    c0.8,1.5,2,2.7,3.5,3.6l3.8-3.8c3.3,1.3,7-0.3,8.3-3.6C58.1,49.3,58.1,47.7,57.7,46.3z"/></g><g><path class="st5" d="M65.7,56.4c-5.1,0-9.3,4.2-9.3,9.3c0,5.1,4.2,9.3,9.3,9.3c5.1,0,9.3-4.2,9.3-9.3c0,0,0,0,0,0    c0.1-5.1-4-9.2-9.1-9.3C65.8,56.4,65.8,56.4,65.7,56.4z"/></g><g><polygon class="st1" points="70.2,60.2 72.7,62.7 64.1,71.3 61.6,68.9 59.3,66.5 61.7,64.1 64.1,66.4   "/></g></g></svg>