<?xml version="1.0" ?><svg xmlns="http://www.w3.org/2000/svg" xmlns:xlink="http://www.w3.org/1999/xlink" version="1.1" id="Layer_1" viewBox="0 0 100 100" style="enable-background:new 0 0 100 100;" xml:space="preserve"><style type="text/css">
	.st0{fill:#EEEEEE;}
	.st1{fill:#FFFFFF;}
	.st2{fill:#F2EDED;}
	.st3{fill:#005EB8;}
	.st4{fill:#0383DB;}
	.st5{fill:#6FC4F7;}
	.st6{fill:#FBB040;}
</style><g id="Rectangle-290"><g id="path-1"><path class="st0" d="M48.9,3.2h2.3c25.2,0,45.7,20.5,45.7,45.7l0,0v2.3c0,25.2-20.5,45.7-45.7,45.7l0,0h-2.3    c-25.2,0-45.7-20.5-45.7-45.8v-2.3C3.2,23.6,23.7,3.2,48.9,3.2z"/><path class="st1" d="M51.2,99.2h-2.3c-26.5,0-48-21.6-48-48v-2.3c0-26.4,21.5-48,48-48h2.3c26.5,0,48,21.5,48,48v2.3    C99.2,77.7,77.7,99.2,51.2,99.2z M48.9,5.5C25,5.5,5.5,24.9,5.5,48.9v2.3c0,23.9,19.5,43.4,43.4,43.5h2.3    c23.9,0,43.4-19.5,43.4-43.4v-2.3C94.6,25,75.1,5.5,51.2,5.5H48.9z"/></g><g id="path-1-2"><path class="st2" d="M51.2,97.5h-2.3c-25.5,0-46.3-20.8-46.3-46.3v-2.3c0-25.5,20.8-46.2,46.3-46.2h2.3    c25.5,0,46.3,20.8,46.3,46.3v2.3C97.5,76.7,76.7,97.5,51.2,97.5z M48.9,3.8C24,3.8,3.8,24,3.8,48.9v2.3C3.8,76,24,96.3,48.9,96.3    h2.3c24.9,0,45.1-20.3,45.1-45.1v-2.3C96.3,24,76.1,3.8,51.2,3.8H48.9z"/></g></g><g><path class="st3" d="M67.3,42.8H36.3c-0.6,0-1.1,1.3-1.1,3.1v12.5c0,1.8,0.5,3.1,1.1,3.1h31c0.6,0,1.1-1.3,1.1-3.1V45.9   C68.4,44.1,67.9,42.8,67.3,42.8z"/></g><g><path class="st4" d="M67.3,59.3H36.3c-1.8,0-3.3,1.4-3.3,3.2v4.3c0,1.8,1.5,3.2,3.3,3.2h31.1c1.8,0,3.3-1.4,3.3-3.2v-4.3   C70.6,60.8,69.1,59.3,67.3,59.3z"/></g><g><path class="st4" d="M67.3,46.5H36.3c-1.8,0-3.3,1.4-3.3,3.2V54c0,1.8,1.5,3.2,3.3,3.2h31.1c1.8,0,3.3-1.4,3.3-3.2v-4.3   C70.6,47.9,69.1,46.5,67.3,46.5z"/></g><g><ellipse class="st3" cx="38.5" cy="51.9" rx="1.1" ry="1.1"/></g><g><ellipse class="st3" cx="43" cy="51.9" rx="1.1" ry="1.1"/></g><g><ellipse class="st3" cx="47.4" cy="51.9" rx="1.1" ry="1.1"/></g><g><path class="st5" d="M65.1,52.9H54c-0.6,0-1.1-0.5-1.1-1.1s0.5-1.1,1.1-1.1l0,0h11.1c0.6,0,1.1,0.5,1.1,1.1   C66.1,52.4,65.7,52.9,65.1,52.9C65.1,52.9,65.1,52.9,65.1,52.9z"/></g><g><ellipse class="st3" cx="38.5" cy="64.7" rx="1.1" ry="1.1"/></g><g><ellipse class="st3" cx="43" cy="64.7" rx="1.1" ry="1.1"/></g><g><ellipse class="st3" cx="47.4" cy="64.7" rx="1.1" ry="1.1"/></g><g><path class="st5" d="M65.1,65.8H54c-0.6,0-1.1-0.5-1.1-1.1c0-0.6,0.5-1.1,1.1-1.1h11.1c0.6,0,1.1,0.5,1.1,1.1   C66.1,65.2,65.7,65.7,65.1,65.8C65.2,65.8,65.1,65.8,65.1,65.8z"/></g><g><path class="st4" d="M67.3,33.7H36.3c-1.8,0-3.3,1.4-3.3,3.2v4.3c0,1.8,1.5,3.2,3.3,3.2h31.1c1.8,0,3.3-1.4,3.3-3.2v-4.3   C70.6,35.1,69.1,33.6,67.3,33.7z"/></g><g><ellipse class="st3" cx="38.5" cy="39" rx="1.1" ry="1.1"/></g><g><ellipse class="st3" cx="43" cy="39" rx="1.1" ry="1.1"/></g><g><ellipse class="st3" cx="47.4" cy="39" rx="1.1" ry="1.1"/></g><g><path class="st5" d="M65.1,40.1H54c-0.6,0-1.1-0.5-1.1-1.1c0-0.6,0.5-1.1,1.1-1.1l0,0h11.1c0.6,0,1.1,0.5,1.1,1.1   C66.1,39.6,65.7,40,65.1,40.1C65.1,40.1,65.1,40.1,65.1,40.1z"/></g><g><circle class="st6" cx="70.7" cy="70.2" r="7.8"/></g><g><polygon class="st1" points="75.5,69.8 70.7,64.6 65.9,69.8 67.5,71.4 69.5,69.3 69.5,75.6 71.9,75.6 71.9,69.3 73.8,71.4  "/></g><g><path class="st6" d="M50.7,36.1c0,3.1-2.5,5.7-5.6,5.8c0,0-0.1,0-0.1,0H27.3c-3.2,0-5.8-2.6-5.8-5.8c0-2.8,2.1-5.2,4.8-5.7v-0.7   c0-2,1.6-3.6,3.6-3.7c0.9,0,1.7,0.3,2.4,0.9c1.1-2.5,2.5-4.9,6.7-4.9c5,0,7.1,3.8,7.1,7.8v0.6C48.8,31,50.7,33.4,50.7,36.1   L50.7,36.1z"/></g></svg>