<?xml version="1.0" ?><svg xmlns="http://www.w3.org/2000/svg" xmlns:xlink="http://www.w3.org/1999/xlink" version="1.1" id="Layer_1" viewBox="0 0 100 100" style="enable-background:new 0 0 100 100;" xml:space="preserve"><style type="text/css">
	.st0{fill:#EEEEEE;}
	.st1{fill:#FFFFFF;}
	.st2{fill:#F2EDED;}
	.st3{fill:#005EB8;}
	.st4{fill:#0F89DB;}
	.st5{fill:#95C8EC;}
	.st6{fill:#BDDDF4;}
	.st7{fill:#FBB040;}
	.st8{fill:#F5844E;}
</style><title/><g><g id="Oval-1-4"><circle id="path-1-4" class="st0" cx="50" cy="50" r="48.7"/><path class="st1" d="M50,100C22.4,100,0,77.6,0,50S22.4,0,50,0s50,22.4,50,50C100,77.6,77.6,100,50,100z M50,2.6    C23.9,2.6,2.6,23.9,2.6,50S23.8,97.4,50,97.4S97.4,76.2,97.4,50C97.3,23.9,76.1,2.7,50,2.6L50,2.6z"/><path class="st2" d="M50,99C23,99,1,77,1,50S23,1,50,1s49,22,49,49S77,99,50,99z M50,1.7C23.3,1.7,1.7,23.3,1.7,50    S23.3,98.3,50,98.3S98.3,76.7,98.3,50S76.7,1.7,50,1.7L50,1.7z"/></g><g><polygon class="st3" points="50,49.2 22.4,63.1 50,77.1 77.6,63.1   "/><polygon class="st4" points="50,41.8 22.4,55.8 50,69.7 77.6,55.8   "/><polygon class="st5" points="50,34.3 22.4,48.2 50,62.1 77.6,48.2   "/><polygon class="st6" points="50,27 22.4,40.9 50,54.9 77.6,40.9   "/><path class="st7" d="M58.3,32.8c0.1-0.9,0.1-1.9,0-2.8l2.3-1.8l-1-2.3l-2.9,0.5c-0.6-0.8-1.2-1.4-2-1.9l0.4-2.9L53,20.8l-1.7,2.4    c-0.9-0.1-1.8-0.1-2.8,0l-1.8-2.3l-2.3,1l0.5,2.9c-0.7,0.6-1.4,1.2-1.9,2l-2.9-0.4l-0.9,2.3l2.4,1.7c-0.1,0.9-0.1,1.9,0,2.8    L39.3,35l1,2.3l2.9-0.5c0.6,0.8,1.2,1.4,2,1.9l-0.4,2.9l2.3,0.9l1.7-2.4c0.9,0.1,1.8,0.1,2.8,0l1.8,2.3l2.3-1L55,38.5    c0.7-0.6,1.4-1.2,1.9-2l2.9,0.4l0.9-2.3L58.3,32.8z M52.5,32.6c-0.5,1.4-2,2-3.4,1.5c0,0,0,0,0,0c-1.4-0.6-2-2.1-1.5-3.5l0,0    c0.5-1.4,2-2,3.4-1.5c0,0,0,0,0,0C52.4,29.6,53,31.2,52.5,32.6C52.5,32.6,52.5,32.6,52.5,32.6L52.5,32.6z"/><path class="st8" d="M54.9,33.6c1.1-2.7-0.2-5.8-3-6.9c-2.7-1.1-5.8,0.2-6.9,3c-1.1,2.7,0.2,5.8,3,6.9l0,0    C50.7,37.6,53.8,36.4,54.9,33.6C54.9,33.7,54.9,33.6,54.9,33.6z M52.5,32.6C52,34,50.4,34.7,49,34.2c-1.4-0.5-2.1-2.1-1.6-3.5    c0,0,0,0,0-0.1c0.5-1.4,2-2,3.4-1.5c0,0,0,0,0,0C52.3,29.6,53,31.2,52.5,32.6C52.5,32.6,52.5,32.6,52.5,32.6z"/></g></g></svg>