<?xml version="1.0" ?><svg xmlns:sketch="http://www.bohemiancoding.com/sketch/ns" xmlns="http://www.w3.org/2000/svg" xmlns:xlink="http://www.w3.org/1999/xlink" version="1.1" id="Layer_1" viewBox="0 0 100 100" style="enable-background:new 0 0 100 100;" xml:space="preserve"><style type="text/css">
	.st0{fill:#EEEEEE;}
	.st1{fill:#FFFFFF;}
	.st2{fill:#F2EDED;}
	.st3{fill:#0E2C7F;}
	.st4{fill:#0061BB;}
	.st5{fill:#ED8B00;}
	.st6{fill:#FFB038;}
	.st7{fill:#0F8ADA;}
</style><g><g id="Rectangle-290_1_"><g><g id="path-1_9_"><path class="st0" d="M48.9,3.5h2.3c25.1,0,45.4,20.3,45.4,45.4v2.3c0,25.1-20.3,45.4-45.4,45.4h-2.3      c-25.1,0-45.4-20.4-45.4-45.4v-2.3C3.5,23.8,23.8,3.5,48.9,3.5z"/><path class="st1" d="M51.2,98.8h-2.3c-26.3,0-47.7-21.4-47.7-47.7v-2.3c0-26.3,21.4-47.6,47.7-47.6h2.3      c26.3,0,47.7,21.4,47.7,47.7v2.3C98.8,77.5,77.5,98.8,51.2,98.8z M48.9,5.8C25.1,5.8,5.8,25.1,5.8,48.9v2.3      c0,23.8,19.3,43.1,43.1,43.2h2.3C75,94.3,94.3,75,94.3,51.2v-2.3C94.3,25.1,75,5.8,51.2,5.8H48.9z"/></g></g><g><g id="path-1_1_"><path class="st2" d="M51.2,97.1h-2.3c-25.3,0-46-20.7-46-46v-2.3C3,23.6,23.6,3,48.9,3h2.3c25.3,0,46,20.6,46,46v2.3      C97.1,76.5,76.5,97.1,51.2,97.1z M48.9,4.1C24.2,4.1,4.1,24.2,4.1,48.9v2.3C4.1,75.8,24.2,96,48.9,96h2.3      C75.9,96,96,75.9,96,51.2v-2.3C96,24.2,75.9,4.1,51.2,4.1H48.9z"/></g></g></g><g><g><path class="st3" d="M28.5,47.5l-3,1.1c-1.7,0.6-2.5,2.4-2,4.1l1.3,3.7l6-2.2L28.5,47.5z"/></g><g><path class="st3" d="M24.9,56.4l1.3,3.7c0.6,1.7,2.4,2.5,4.1,2l3-1.1L31,54.2L24.9,56.4z"/></g><g><path class="st3" d="M26.9,52.3c-1.7,0.6-2.5,2.4-2,4.1c0.6,1.7,2.4,2.5,4.1,2l3-1.1l-2.2-6L26.9,52.3z"/></g><g><path class="st3" d="M47.7,67.7c1.7-0.6,2.5-2.4,2-4.1l-3.2-8.7l-9,3.3L47.7,67.7z"/></g><g><path class="st4" d="M42.6,63.1L37.2,63l7.1,15c0.7,1.5,2.4,2.2,4,1.6l3.3-1.2L42.6,63.1z"/></g><g><path class="st4" d="M50.5,75.4l-4.4-12.2l-3.4-0.1l4.8,13.4c0.6,1.7,2.4,2.5,4.1,2c0.8-0.3,1.3-1.2,0.9-2     C52.2,75.6,51.3,75.1,50.5,75.4z"/></g><g><path class="st4" d="M42.8,54.1l-6,2.2l6.3,8l3-1.1L42.8,54.1z"/></g><g><path class="st4" d="M34.4,63.9c0.6,1.7,2.4,2.5,4.1,2l4.5-1.6l-3.3-9L34.4,63.9z"/></g><g><path class="st5" d="M40.9,39.5l-6,2.2l-1,11.4l8,8.1l6-2.2L40.9,39.5z"/></g><g><path class="st6" d="M27.4,44.4c-1.7,0.6-2.5,2.4-2,4.1L30.3,62c0.6,1.7,2.4,2.5,4.1,2l7.5-2.7l-7-19.6L27.4,44.4z"/></g><g><path class="st4" d="M55.9,23.9c-0.6,1.3-1.3,2.6-2,3.8l1.3,17.7l10.3,14.5c1.3,0.5,2.7,1,4,1.6L71,61L57.4,23.4L55.9,23.9z"/></g><g><path class="st7" d="M37.9,40.6l7,19.6c6.8-2.5,14-2.4,20.5-0.3L53.8,27.7C50.3,33.5,44.8,38.1,37.9,40.6L37.9,40.6z"/></g><g><path class="st4" d="M61.7,35.1l5.1,14l4.3-5.8c0.2-0.2,0.2-0.5,0.1-0.7l-1.9-5.2c-0.1-0.3-0.3-0.5-0.6-0.5L61.7,35.1z"/></g><g><g><path class="st5" d="M75,39.1l-1.5,0.6c-0.4,0.1-0.8,0-1-0.5c-0.1-0.4,0-0.8,0.5-1l1.5-0.6c0.4-0.1,0.8,0,1,0.5      C75.6,38.5,75.4,39,75,39.1z"/></g><g><path class="st5" d="M73.7,34.1c-0.3-0.3-0.8-0.2-1.1,0.1l-1,1.2c-0.3,0.3-0.2,0.8,0.1,1.1c0.3,0.3,0.8,0.2,1.1-0.1l1-1.2      C74.1,34.9,74,34.4,73.7,34.1z"/></g><g><path class="st5" d="M76,41.4l-1.6-0.3c-0.5-0.1-0.8,0.2-0.9,0.7c-0.1,0.5,0.2,0.8,0.7,0.9l1.6,0.3c0.5,0.1,0.8-0.2,0.9-0.7      C76.8,41.9,76.4,41.5,76,41.4z"/></g></g><g><path class="st6" d="M56.4,20.4c-0.8,0.3-1.3,1.2-0.9,2L70.1,63c0.3,0.8,1.2,1.3,2,0.9c0.8-0.3,1.3-1.2,0.9-2L58.4,21.3     C58.1,20.5,57.1,20.1,56.4,20.4z"/></g></g></g></svg>