<?xml version="1.0" ?><svg xmlns="http://www.w3.org/2000/svg" xmlns:xlink="http://www.w3.org/1999/xlink" version="1.1" id="Layer_1" viewBox="0 0 100 100" style="enable-background:new 0 0 100 100;" xml:space="preserve"><style type="text/css">
	.st0{fill:#EEEEEE;}
	.st1{fill:#FFFFFF;}
	.st2{fill:#F2EDED;}
	.st3{fill:#ED8B00;}
	.st4{fill:#FBB040;}
	.st5{fill:#005EB8;}
</style><title/><g><circle id="path-1-5" class="st0" cx="50" cy="50" r="47.9"/><path class="st1" d="M50,99.2c-27.2,0-49.2-22-49.2-49.2S22.8,0.8,50,0.8s49.2,22,49.2,49.2C99.2,77.2,77.2,99.2,50,99.2z M50,3.4   C24.3,3.4,3.4,24.3,3.4,50S24.2,96.6,50,96.6S96.6,75.8,96.6,50C96.6,24.3,75.7,3.4,50,3.4L50,3.4z"/><path class="st2" d="M50,98.2C23.4,98.2,1.8,76.6,1.8,50S23.4,1.8,50,1.8S98.2,23.4,98.2,50S76.6,98.2,50,98.2z M50,2.4   C23.7,2.4,2.4,23.7,2.4,50S23.7,97.6,50,97.6S97.6,76.3,97.6,50S76.3,2.4,50,2.4L50,2.4z"/><g><path class="st3" d="M41.7,45.6h16.6v8.7H41.7V45.6z"/><path class="st4" d="M59.6,41v4.5c0,0.4-0.3,0.7-0.7,0.7H41.1c-0.4,0-0.7-0.3-0.7-0.7V41c0-0.4,0.3-0.7,0.7-0.7h17.8    C59.3,40.4,59.6,40.7,59.6,41z M58.9,47H41.1c-0.4,0-0.7,0.3-0.7,0.7l0,0v4.5c0,0.4,0.3,0.7,0.7,0.7h17.8c0.4,0,0.7-0.3,0.7-0.7    v-4.5C59.6,47.4,59.3,47,58.9,47L58.9,47z M58.9,53.7H41.1c-0.4,0-0.7,0.3-0.7,0.7v4.5c0,0.4,0.3,0.7,0.7,0.7h17.8    c0.4,0,0.7-0.3,0.7-0.7v-4.5C59.6,54,59.3,53.7,58.9,53.7C59,53.7,59,53.7,58.9,53.7z"/><path class="st1" d="M49.9,41.4h8.7v3.8h-8.7V41.4z M49.9,51.9h8.7v-3.8h-8.7V51.9z M49.9,58.6h8.7v-3.8h-8.7V58.6z"/><path class="st1" d="M43,42.4c0.6,0,1,0.4,1,1s-0.4,1-1,1s-1-0.4-1-1l0,0C42,42.8,42.5,42.4,43,42.4z M42,50c0,0.6,0.4,1,1,1    s1-0.4,1-1s-0.4-1-1-1l0,0C42.5,49,42,49.4,42,50z M42,56.7c0,0.6,0.4,1,1,1s1-0.4,1-1s-0.4-1-1-1l0,0C42.5,55.7,42,56.1,42,56.7    L42,56.7z"/><path class="st1" d="M46.5,42.4c0.6,0,1,0.4,1,1s-0.4,1-1,1s-1-0.4-1-1l0,0C45.5,42.8,45.9,42.4,46.5,42.4z M45.5,50    c0,0.6,0.4,1,1,1s1-0.4,1-1s-0.4-1-1-1l0,0C45.9,49,45.5,49.4,45.5,50z M45.5,56.7c0,0.6,0.4,1,1,1s1-0.4,1-1s-0.4-1-1-1l0,0    C45.9,55.7,45.5,56.1,45.5,56.7L45.5,56.7z"/></g><path class="st5" d="M75.5,44.8H72c-0.5-2.1-1.3-4-2.3-6l2.9-2.9c0.8-0.8,0.8-1.8,0-2.6l-5.5-5.5c-0.8-0.8-1.8-0.8-2.6,0l-2.8,2.8   c-1.8-1.2-3.8-2-6-2.6v-3.8c0-0.9-0.8-1.8-1.8-1.8h-7.8c-0.9,0-1.8,0.8-1.8,1.8V28C42,28.5,40,29.4,38,30.5l-2.3-2.3   c-0.8-0.8-1.8-0.8-2.6,0l-5.5,5.6c-0.8,0.8-0.8,1.8,0,2.6l2.4,2.4c-1.1,1.9-1.9,3.9-2.4,6.2h-3.3c-0.9,0-1.8,0.8-1.8,1.8v7.9   c0,0.9,0.8,1.8,1.8,1.8h3.5c0.5,2.1,1.4,4,2.6,5.9L27.8,65c-0.8,0.8-0.8,1.8,0,2.6l5.5,5.4c0.8,0.8,1.8,0.8,2.6,0l2.7-2.7   c1.7,0.9,3.6,1.8,5.6,2.3v3.1c0,0.9,0.8,1.8,1.8,1.8H54c0.9,0,1.8-0.8,1.8-1.8v-3.1c2.1-0.5,4-1.4,5.9-2.4l2.9,2.9   c0.8,0.8,1.8,0.8,2.6,0l5.5-5.5c0.8-0.8,0.8-1.8,0-2.6L69.8,62c1.1-1.7,1.8-3.6,2.4-5.6h3.5c0.9,0,1.8-0.8,1.8-1.8v-7.9   C77.1,45.7,76.4,44.8,75.5,44.8z M50,67.4c-9.7,0-17.4-7.8-17.4-17.4S40.3,32.6,50,32.6S67.4,40.4,67.4,50S59.7,67.4,50,67.4z"/></g></svg>