<?xml version="1.0" ?><svg xmlns="http://www.w3.org/2000/svg" xmlns:xlink="http://www.w3.org/1999/xlink" version="1.1" id="Layer_1" viewBox="0 0 100 100" style="enable-background:new 0 0 100 100;" xml:space="preserve"><style type="text/css">
	.st0{fill:#EEEEEE;}
	.st1{fill:#FFFFFF;}
	.st2{fill:#F2EDED;}
	.st3{fill:#EA8C00;}
	.st4{fill:#FDB143;}
	.st5{fill:#005EB8;}
	.st6{fill:#0F8ADA;}
</style><g><g id="Rectangle-290_2_"><g id="path-1_2_"><path class="st0" d="M48.8,2.3h2.3c25.7,0,46.5,20.8,46.5,46.5c0,0,0,0,0,0v2.3c0,25.7-20.8,46.5-46.5,46.5c0,0,0,0,0,0h-2.3     c-25.7,0-46.5-20.8-46.5-46.5c0,0,0,0,0,0v-2.3C2.3,23.2,23.1,2.3,48.8,2.3C48.8,2.3,48.8,2.3,48.8,2.3z"/><path class="st1" d="M48.8,100C21.9,100,0,78.1,0,51.2v-2.3C0,21.9,21.9,0,48.8,0h2.3c0,0,0,0,0,0c13,0,25.3,5.1,34.5,14.3     c9.2,9.2,14.3,21.5,14.3,34.5v2.3c0,26.9-21.9,48.8-48.8,48.8H48.8C48.8,100,48.8,100,48.8,100z M48.8,4.7     C24.5,4.7,4.6,24.5,4.7,48.8v2.3c0,24.4,19.8,44.2,44.2,44.2c0,0,0,0,0,0h2.3c11.8,0,22.9-4.6,31.3-12.9     c8.3-8.3,12.9-19.4,12.9-31.2v-2.3c0-11.8-4.6-22.9-12.9-31.3C74.1,9.2,63,4.7,51.2,4.7c0,0,0,0,0,0H48.8z"/></g><g id="path-1-2_2_"><path class="st2" d="M48.8,98.3c-26,0-47.1-21.1-47.1-47.1v-2.3c0-26,21.1-47.1,47.1-47.1h2.3c0,0,0,0,0,0     c12.6,0,24.4,4.9,33.3,13.8c8.9,8.9,13.8,20.7,13.8,33.3v2.3c0,12.6-4.9,24.4-13.8,33.3S63.8,98.3,51.2,98.3H48.8     C48.8,98.3,48.8,98.3,48.8,98.3z M48.8,2.9C23.5,2.9,2.9,23.5,2.9,48.8v2.3c0,25.3,20.6,45.9,45.9,45.9c0,0,0,0,0,0h2.3     c25.3,0,45.9-20.6,45.9-45.9v-2.3c0-12.3-4.8-23.8-13.5-32.5C75,7.7,63.4,2.9,51.2,2.9c0,0,0,0,0,0H48.8z"/></g></g><g><path class="st3" d="M43.5,41.6c0-0.1-0.2-6.9-5.2-12.5l1.8-1.6c5.6,6.3,5.8,13.7,5.8,14L43.5,41.6l1.2,0L43.5,41.6z"/></g><g><g><path class="st4" d="M44.7,41.6c-5.6-5.6-20.4-3.7-20.4,8.8c0,12.5,12.6,24.8,15.7,24.8c1.1,0,1.9-0.2,2.7-0.6     c1.3-0.6,2.8-0.6,4.1,0c0.7,0.3,1.6,0.6,2.7,0.6c3.1,0,15.7-12.3,15.7-24.8C65.1,37.9,50.3,36,44.7,41.6z M49.3,72.9     c-0.6,0-1.1-0.1-1.6-0.4c-1-0.4-2-0.6-3-0.6c-1,0-2,0.2-3,0.6c-0.5,0.2-1.1,0.3-1.6,0.4c-2.4-0.7-13.5-11.2-13.5-22.5     c0-6.6,5-9.5,9.9-9.5c2.7,0,5.1,0.9,6.6,2.3l1.6,1.6l1.6-1.6c1.5-1.5,3.9-2.3,6.6-2.3c4.9,0,9.9,2.9,9.9,9.5     C62.8,61.6,51.7,72.2,49.3,72.9z"/></g></g><g><path class="st5" d="M42,28.3c0,0,10.7-9.1,18,2.9C51.4,29.8,42,28.3,42,28.3z"/></g><g><path class="st6" d="M42,28.3c0,0,7.2,12,18,2.9C51.4,29.8,42,28.3,42,28.3z"/></g><g><polygon class="st4" points="39.9,73.7 33.5,69.3 26.6,55.8 63.4,55.8 55,70.1 49.8,73.7 47.6,73.7 43.3,72.9   "/></g><g><path class="st4" d="M63.4,46.7c-0.1-0.4-2-3.8-2-3.8s-3.8-2.4-4.2-2.4c-0.4-0.1-5.3-1-5.3-1c0,0-3.8,1.5-3.8,1.5l-3.7,1.9    c0,0-1.9-2.7-2.4-2.8c-0.5-0.1-5.1-1-7-1s-6,2.7-6.3,3.1c-0.2,0.4-2.9,3.3-2.8,4.2c0.1,0.9-1.1,5.5-0.8,6.4c0.3,1,2.4,5.1,2.9,5.2    s9.1-0.9,9.4-1.2c0.3-0.3,10.8,0,10.8,0s11-0.7,11-0.7l3.7,0.1c0,0,1.1-2.1,1.1-2.4C64,53.5,63.4,47,63.4,46.7z M31.4,51.2    c-0.7,0-1.3-0.6-1.3-1.3c0-0.7,0.6-1.3,1.3-1.3c0.7,0,1.3,0.6,1.3,1.3C32.7,50.6,32.2,51.2,31.4,51.2z M34.6,47.2    c-0.7,0-1.3-0.6-1.3-1.3c0-0.7,0.6-1.3,1.3-1.3c0.7,0,1.3,0.6,1.3,1.3C35.9,46.6,35.3,47.2,34.6,47.2z"/></g><g><g><g><path class="st5" d="M72.5,68.1h-32c-1.9,0-3.4-1.5-3.4-3.4v-9.6c0-1.9,1.5-3.4,3.4-3.4h32c1.9,0,3.4,1.5,3.4,3.4v9.6      C75.8,66.6,74.3,68.1,72.5,68.1z"/></g></g><g><g><path class="st1" d="M44.3,63.5h-1.9v-7.2h4.3v1.6h-2.3v1.4h2.2v1.6h-2.2V63.5z"/></g><g><path class="st1" d="M49.7,60.9v2.6h-1.9v-7.2h2.4c2,0,2.9,0.7,2.9,2.1c0,0.8-0.4,1.5-1.2,1.9l2.1,3.1h-2.2l-1.5-2.6H49.7z       M49.7,59.4h0.4c0.7,0,1-0.3,1-0.9c0-0.5-0.3-0.7-1-0.7h-0.4V59.4z"/></g><g><path class="st1" d="M60.7,56.3v4.3c0,0.9-0.3,1.7-0.8,2.2c-0.5,0.5-1.3,0.8-2.3,0.8c-1,0-1.7-0.3-2.3-0.8      c-0.5-0.5-0.8-1.2-0.8-2.2v-4.4h2v4.2c0,0.5,0.1,0.9,0.3,1.1c0.2,0.2,0.5,0.3,0.8,0.3c0.4,0,0.7-0.1,0.9-0.3      c0.2-0.2,0.3-0.6,0.3-1.1v-4.2H60.7z"/></g><g><path class="st1" d="M62.2,63.5v-7.2h2v7.2H62.2z"/></g><g><path class="st1" d="M68.9,63.5H67v-5.6h-1.8v-1.6h5.5v1.6h-1.8V63.5z"/></g></g></g></g></svg>